# xmcd
#
# Track frame offsets:
#	150
#	15507
#	27970
#	42206
#	57190
#	71643
#	87791
#	101737
#	115849
#	129552
#	144327
#	158481
#	170572
#	186724
#	201881
#	215263
#	226774
#	240461
#	256258
#	269922
#	287483
#
# Disc length: 4039 seconds
#
# Revision: 0
# Processed by: cddbd v1.4PL0 Copyright (c) Steve Scherf et al.
# Submitted via: EasyCDDAExtractor 4.6.0.1
#
DISCID=280fc515
DTITLE=Dzej - Best of Dzej, Volume 1
DYEAR=2001
DGENRE=Country
TTITLE0=Dao bih ti brda i doline
TTITLE1=Ko sa s nama druzi
TTITLE2=Jedan, dva
TTITLE3=Prokleta bila
TTITLE4=Pamti srce, pamti
TTITLE5=Ja bitanga i baraba
TTITLE6=Da sam lopov
TTITLE7=Mrak. mrak
TTITLE8=Sexy ritam
TTITLE9=Ni jedne usne se ne ljube same
TTITLE10=I zene vole muskarce
TTITLE11=Lubenica
TTITLE12=Tvoje oko garavo
TTITLE13=Radjaj sinove
TTITLE14=Blago onom ko rano poludi
TTITLE15=Sve su zene nepostene
TTITLE16=Slazes li se ti
TTITLE17=Ljubio sam nisam znao
TTITLE18=Ovaj zivot nije lak
TTITLE19=Gde je ljubav nasa
TTITLE20=Tri godine zivim sam
EXTD=
EXTT0=
EXTT1=
EXTT2=
EXTT3=
EXTT4=
EXTT5=
EXTT6=
EXTT7=
EXTT8=
EXTT9=
EXTT10=
EXTT11=
EXTT12=
EXTT13=
EXTT14=
EXTT15=
EXTT16=
EXTT17=
EXTT18=
EXTT19=
EXTT20=
PLAYORDER=
